<mxfile host="app.diagrams.net" modified="2023-02-15T00:21:16.244Z" agent="5.0 (Windows NT 10.0; Win64; x64) AppleWebKit/537.36 (KHTML, like Gecko) Chrome/109.0.0.0 Safari/537.36 OPR/95.0.0.0" etag="9IQdrW2EYxqWYG3Dk5TD" version="20.8.20" type="github">
  <diagram id="R2lEEEUBdFMjLlhIrx00" name="Page-1">
    <mxGraphModel dx="1970" dy="595" grid="1" gridSize="10" guides="1" tooltips="1" connect="1" arrows="1" fold="1" page="1" pageScale="1" pageWidth="850" pageHeight="1100" math="0" shadow="0" extFonts="Permanent Marker^https://fonts.googleapis.com/css?family=Permanent+Marker">
      <root>
        <mxCell id="0" />
        <mxCell id="1" parent="0" />
        <mxCell id="s28GD_r-yV0hMui-Od6E-1" value="Usuário" style="rounded=1;arcSize=10;whiteSpace=wrap;html=1;align=center;" parent="1" vertex="1">
          <mxGeometry x="410" y="320" width="100" height="40" as="geometry" />
        </mxCell>
        <mxCell id="s28GD_r-yV0hMui-Od6E-4" value="Cliente" style="rounded=1;arcSize=10;whiteSpace=wrap;html=1;align=center;" parent="1" vertex="1">
          <mxGeometry x="620" y="220" width="100" height="40" as="geometry" />
        </mxCell>
        <mxCell id="s28GD_r-yV0hMui-Od6E-5" value="Cadastra" style="shape=rhombus;perimeter=rhombusPerimeter;whiteSpace=wrap;html=1;align=center;" parent="1" vertex="1">
          <mxGeometry x="210" y="340" width="120" height="50" as="geometry" />
        </mxCell>
        <mxCell id="s28GD_r-yV0hMui-Od6E-6" value="Produto" style="rounded=1;arcSize=10;whiteSpace=wrap;html=1;align=center;" parent="1" vertex="1">
          <mxGeometry x="478" y="558" width="100" height="40" as="geometry" />
        </mxCell>
        <mxCell id="s28GD_r-yV0hMui-Od6E-9" value="Aprova" style="shape=rhombus;perimeter=rhombusPerimeter;whiteSpace=wrap;html=1;align=center;" parent="1" vertex="1">
          <mxGeometry x="140" y="520" width="120" height="60" as="geometry" />
        </mxCell>
        <mxCell id="s28GD_r-yV0hMui-Od6E-10" value="Orçamento" style="rounded=1;arcSize=10;whiteSpace=wrap;html=1;align=center;" parent="1" vertex="1">
          <mxGeometry x="150" y="450" width="100" height="40" as="geometry" />
        </mxCell>
        <mxCell id="s28GD_r-yV0hMui-Od6E-23" value="1,N" style="text;strokeColor=none;align=center;fillColor=none;html=1;verticalAlign=middle;whiteSpace=wrap;rounded=0;" parent="1" vertex="1">
          <mxGeometry x="105" y="380" width="60" height="30" as="geometry" />
        </mxCell>
        <mxCell id="s28GD_r-yV0hMui-Od6E-24" value="Cadastra" style="shape=rhombus;perimeter=rhombusPerimeter;whiteSpace=wrap;html=1;align=center;" parent="1" vertex="1">
          <mxGeometry x="450" y="220" width="90" height="40" as="geometry" />
        </mxCell>
        <mxCell id="gPxSpxk_2Vq7euESL9tj-1" value="Licença" style="rounded=1;arcSize=10;whiteSpace=wrap;html=1;align=center;" parent="1" vertex="1">
          <mxGeometry x="95" y="245" width="100" height="40" as="geometry" />
        </mxCell>
        <mxCell id="gPxSpxk_2Vq7euESL9tj-2" value="Possui" style="shape=rhombus;perimeter=rhombusPerimeter;whiteSpace=wrap;html=1;align=center;" parent="1" vertex="1">
          <mxGeometry x="255" y="300" width="90" height="30" as="geometry" />
        </mxCell>
        <mxCell id="gPxSpxk_2Vq7euESL9tj-6" value="" style="edgeStyle=entityRelationEdgeStyle;fontSize=12;html=1;endArrow=ERmandOne;startArrow=ERmandOne;rounded=0;exitX=1;exitY=0.5;exitDx=0;exitDy=0;entryX=0;entryY=0.5;entryDx=0;entryDy=0;" parent="1" source="gPxSpxk_2Vq7euESL9tj-1" target="gPxSpxk_2Vq7euESL9tj-2" edge="1">
          <mxGeometry width="100" height="100" relative="1" as="geometry">
            <mxPoint x="370" y="290" as="sourcePoint" />
            <mxPoint x="470" y="190" as="targetPoint" />
          </mxGeometry>
        </mxCell>
        <mxCell id="gPxSpxk_2Vq7euESL9tj-7" value="" style="edgeStyle=entityRelationEdgeStyle;fontSize=12;html=1;endArrow=ERmandOne;startArrow=ERmandOne;rounded=0;exitX=1;exitY=0.5;exitDx=0;exitDy=0;entryX=0;entryY=0.5;entryDx=0;entryDy=0;" parent="1" source="gPxSpxk_2Vq7euESL9tj-2" target="s28GD_r-yV0hMui-Od6E-1" edge="1">
          <mxGeometry width="100" height="100" relative="1" as="geometry">
            <mxPoint x="130" y="70" as="sourcePoint" />
            <mxPoint x="160" y="70" as="targetPoint" />
          </mxGeometry>
        </mxCell>
        <mxCell id="gPxSpxk_2Vq7euESL9tj-11" value="" style="edgeStyle=entityRelationEdgeStyle;fontSize=12;html=1;endArrow=ERoneToMany;rounded=0;exitX=1;exitY=0.5;exitDx=0;exitDy=0;entryX=0;entryY=0.5;entryDx=0;entryDy=0;" parent="1" source="s28GD_r-yV0hMui-Od6E-24" target="s28GD_r-yV0hMui-Od6E-4" edge="1">
          <mxGeometry width="100" height="100" relative="1" as="geometry">
            <mxPoint x="645" y="100" as="sourcePoint" />
            <mxPoint x="715" y="100" as="targetPoint" />
          </mxGeometry>
        </mxCell>
        <mxCell id="gPxSpxk_2Vq7euESL9tj-17" value="Endereço_entrega" style="rounded=1;arcSize=10;whiteSpace=wrap;html=1;align=center;" parent="1" vertex="1">
          <mxGeometry x="-95" y="630" width="100" height="40" as="geometry" />
        </mxCell>
        <mxCell id="gPxSpxk_2Vq7euESL9tj-20" value="1,N" style="text;strokeColor=none;align=center;fillColor=none;html=1;verticalAlign=middle;whiteSpace=wrap;rounded=0;" parent="1" vertex="1">
          <mxGeometry x="365" y="340" width="60" height="30" as="geometry" />
        </mxCell>
        <mxCell id="gPxSpxk_2Vq7euESL9tj-22" value="Pedido" style="rounded=1;arcSize=10;whiteSpace=wrap;html=1;align=center;" parent="1" vertex="1">
          <mxGeometry x="290" y="510" width="100" height="40" as="geometry" />
        </mxCell>
        <mxCell id="gPxSpxk_2Vq7euESL9tj-27" value="" style="edgeStyle=entityRelationEdgeStyle;fontSize=12;html=1;endArrow=ERmandOne;startArrow=ERmandOne;rounded=0;exitX=0.5;exitY=1;exitDx=0;exitDy=0;entryX=0.5;entryY=0;entryDx=0;entryDy=0;" parent="1" source="s28GD_r-yV0hMui-Od6E-10" target="s28GD_r-yV0hMui-Od6E-9" edge="1">
          <mxGeometry width="100" height="100" relative="1" as="geometry">
            <mxPoint x="370" y="280" as="sourcePoint" />
            <mxPoint x="470" y="180" as="targetPoint" />
          </mxGeometry>
        </mxCell>
        <mxCell id="gPxSpxk_2Vq7euESL9tj-28" value="" style="edgeStyle=entityRelationEdgeStyle;fontSize=12;html=1;endArrow=ERmandOne;startArrow=ERmandOne;rounded=0;exitX=0.5;exitY=1;exitDx=0;exitDy=0;entryX=0;entryY=0.5;entryDx=0;entryDy=0;" parent="1" source="s28GD_r-yV0hMui-Od6E-9" target="gPxSpxk_2Vq7euESL9tj-22" edge="1">
          <mxGeometry width="100" height="100" relative="1" as="geometry">
            <mxPoint x="400" y="200" as="sourcePoint" />
            <mxPoint x="360" y="240" as="targetPoint" />
          </mxGeometry>
        </mxCell>
        <mxCell id="gPxSpxk_2Vq7euESL9tj-29" value="Pagar" style="shape=rhombus;perimeter=rhombusPerimeter;whiteSpace=wrap;html=1;align=center;" parent="1" vertex="1">
          <mxGeometry x="270" y="600" width="120" height="60" as="geometry" />
        </mxCell>
        <mxCell id="gPxSpxk_2Vq7euESL9tj-34" value="" style="edgeStyle=entityRelationEdgeStyle;fontSize=12;html=1;endArrow=ERoneToMany;rounded=0;exitX=0.5;exitY=1;exitDx=0;exitDy=0;entryX=1;entryY=0.5;entryDx=0;entryDy=0;" parent="1" source="s28GD_r-yV0hMui-Od6E-1" target="s28GD_r-yV0hMui-Od6E-5" edge="1">
          <mxGeometry width="100" height="100" relative="1" as="geometry">
            <mxPoint x="370" y="270" as="sourcePoint" />
            <mxPoint x="470" y="170" as="targetPoint" />
          </mxGeometry>
        </mxCell>
        <mxCell id="gPxSpxk_2Vq7euESL9tj-36" value="Cadastra" style="shape=rhombus;perimeter=rhombusPerimeter;whiteSpace=wrap;html=1;align=center;" parent="1" vertex="1">
          <mxGeometry x="450" y="425" width="120" height="60" as="geometry" />
        </mxCell>
        <mxCell id="gPxSpxk_2Vq7euESL9tj-38" value="" style="edgeStyle=entityRelationEdgeStyle;fontSize=12;html=1;endArrow=ERzeroToMany;endFill=1;startArrow=ERzeroToMany;rounded=0;entryX=1;entryY=1;entryDx=0;entryDy=0;exitX=0.5;exitY=0;exitDx=0;exitDy=0;" parent="1" source="s28GD_r-yV0hMui-Od6E-6" target="gPxSpxk_2Vq7euESL9tj-36" edge="1">
          <mxGeometry width="100" height="100" relative="1" as="geometry">
            <mxPoint x="500" y="557" as="sourcePoint" />
            <mxPoint x="470" y="170" as="targetPoint" />
          </mxGeometry>
        </mxCell>
        <mxCell id="gPxSpxk_2Vq7euESL9tj-42" value="Cadastra" style="shape=rhombus;perimeter=rhombusPerimeter;whiteSpace=wrap;html=1;align=center;" parent="1" vertex="1">
          <mxGeometry x="255" y="420" width="90" height="40" as="geometry" />
        </mxCell>
        <mxCell id="gPxSpxk_2Vq7euESL9tj-43" value="" style="edgeStyle=entityRelationEdgeStyle;fontSize=12;html=1;endArrow=ERoneToMany;rounded=0;exitX=0.5;exitY=1;exitDx=0;exitDy=0;entryX=0.5;entryY=0;entryDx=0;entryDy=0;" parent="1" source="s28GD_r-yV0hMui-Od6E-1" target="gPxSpxk_2Vq7euESL9tj-42" edge="1">
          <mxGeometry width="100" height="100" relative="1" as="geometry">
            <mxPoint x="370" y="270" as="sourcePoint" />
            <mxPoint x="470" y="170" as="targetPoint" />
          </mxGeometry>
        </mxCell>
        <mxCell id="gPxSpxk_2Vq7euESL9tj-44" value="" style="edgeStyle=entityRelationEdgeStyle;fontSize=12;html=1;endArrow=ERoneToMany;rounded=0;exitX=0;exitY=0.5;exitDx=0;exitDy=0;entryX=0.5;entryY=0;entryDx=0;entryDy=0;" parent="1" source="gPxSpxk_2Vq7euESL9tj-42" target="s28GD_r-yV0hMui-Od6E-10" edge="1">
          <mxGeometry width="100" height="100" relative="1" as="geometry">
            <mxPoint x="350" y="90" as="sourcePoint" />
            <mxPoint x="393" y="120" as="targetPoint" />
          </mxGeometry>
        </mxCell>
        <mxCell id="gPxSpxk_2Vq7euESL9tj-47" value="1,1" style="text;strokeColor=none;align=center;fillColor=none;html=1;verticalAlign=middle;whiteSpace=wrap;rounded=0;" parent="1" vertex="1">
          <mxGeometry x="640" y="440" width="60" height="30" as="geometry" />
        </mxCell>
        <mxCell id="gPxSpxk_2Vq7euESL9tj-51" value="1,N" style="text;strokeColor=none;align=center;fillColor=none;html=1;verticalAlign=middle;whiteSpace=wrap;rounded=0;" parent="1" vertex="1">
          <mxGeometry x="470" y="290" width="60" height="30" as="geometry" />
        </mxCell>
        <mxCell id="gPxSpxk_2Vq7euESL9tj-56" value="1,1" style="text;strokeColor=none;align=center;fillColor=none;html=1;verticalAlign=middle;whiteSpace=wrap;rounded=0;" parent="1" vertex="1">
          <mxGeometry x="570" y="210" width="60" height="30" as="geometry" />
        </mxCell>
        <mxCell id="gPxSpxk_2Vq7euESL9tj-58" value="1,1" style="text;strokeColor=none;align=center;fillColor=none;html=1;verticalAlign=middle;whiteSpace=wrap;rounded=0;" parent="1" vertex="1">
          <mxGeometry x="365" y="310" width="60" height="30" as="geometry" />
        </mxCell>
        <mxCell id="NkKOO6XyAcUCfAbvbqqt-1" value="" style="edgeStyle=entityRelationEdgeStyle;fontSize=12;html=1;endArrow=ERoneToMany;rounded=0;exitX=0.5;exitY=0;exitDx=0;exitDy=0;entryX=0.5;entryY=1;entryDx=0;entryDy=0;" parent="1" source="s28GD_r-yV0hMui-Od6E-1" target="s28GD_r-yV0hMui-Od6E-24" edge="1">
          <mxGeometry width="100" height="100" relative="1" as="geometry">
            <mxPoint x="370" y="250" as="sourcePoint" />
            <mxPoint x="470" y="150" as="targetPoint" />
          </mxGeometry>
        </mxCell>
        <mxCell id="NkKOO6XyAcUCfAbvbqqt-3" value="Despesa" style="rounded=1;arcSize=10;whiteSpace=wrap;html=1;align=center;" parent="1" vertex="1">
          <mxGeometry x="20" y="400" width="100" height="40" as="geometry" />
        </mxCell>
        <mxCell id="NkKOO6XyAcUCfAbvbqqt-4" value="" style="edgeStyle=entityRelationEdgeStyle;fontSize=12;html=1;endArrow=ERoneToMany;rounded=0;exitX=0;exitY=0.5;exitDx=0;exitDy=0;entryX=1;entryY=0.25;entryDx=0;entryDy=0;" parent="1" source="s28GD_r-yV0hMui-Od6E-5" target="NkKOO6XyAcUCfAbvbqqt-3" edge="1">
          <mxGeometry width="100" height="100" relative="1" as="geometry">
            <mxPoint x="455" y="295" as="sourcePoint" />
            <mxPoint x="110" y="340" as="targetPoint" />
          </mxGeometry>
        </mxCell>
        <mxCell id="3RLbTV6VqlwjEsxKCJEv-1" value="" style="edgeStyle=entityRelationEdgeStyle;fontSize=12;html=1;endArrow=ERoneToMany;rounded=0;exitX=0.75;exitY=1;exitDx=0;exitDy=0;entryX=0.5;entryY=0;entryDx=0;entryDy=0;" parent="1" source="s28GD_r-yV0hMui-Od6E-1" target="gPxSpxk_2Vq7euESL9tj-36" edge="1">
          <mxGeometry width="100" height="100" relative="1" as="geometry">
            <mxPoint x="330" y="380" as="sourcePoint" />
            <mxPoint x="430" y="280" as="targetPoint" />
          </mxGeometry>
        </mxCell>
        <mxCell id="3RLbTV6VqlwjEsxKCJEv-2" value="Cadastra" style="shape=rhombus;perimeter=rhombusPerimeter;whiteSpace=wrap;html=1;align=center;" parent="1" vertex="1">
          <mxGeometry x="-108" y="508" width="90" height="40" as="geometry" />
        </mxCell>
        <mxCell id="3RLbTV6VqlwjEsxKCJEv-5" value="Estoque" style="rounded=1;arcSize=10;whiteSpace=wrap;html=1;align=center;" parent="1" vertex="1">
          <mxGeometry x="685" y="415" width="100" height="40" as="geometry" />
        </mxCell>
        <mxCell id="3RLbTV6VqlwjEsxKCJEv-6" value="Cadastra" style="shape=rhombus;perimeter=rhombusPerimeter;whiteSpace=wrap;html=1;align=center;" parent="1" vertex="1">
          <mxGeometry x="570" y="330" width="85" height="40" as="geometry" />
        </mxCell>
        <mxCell id="3RLbTV6VqlwjEsxKCJEv-7" value="" style="edgeStyle=entityRelationEdgeStyle;fontSize=12;html=1;endArrow=ERoneToMany;rounded=0;exitX=1;exitY=0.75;exitDx=0;exitDy=0;" parent="1" source="s28GD_r-yV0hMui-Od6E-1" target="3RLbTV6VqlwjEsxKCJEv-6" edge="1">
          <mxGeometry width="100" height="100" relative="1" as="geometry">
            <mxPoint x="330" y="480" as="sourcePoint" />
            <mxPoint x="430" y="380" as="targetPoint" />
          </mxGeometry>
        </mxCell>
        <mxCell id="3RLbTV6VqlwjEsxKCJEv-8" value="" style="edgeStyle=entityRelationEdgeStyle;fontSize=12;html=1;endArrow=ERoneToMany;rounded=0;exitX=1;exitY=0.5;exitDx=0;exitDy=0;entryX=0;entryY=0.5;entryDx=0;entryDy=0;" parent="1" source="3RLbTV6VqlwjEsxKCJEv-6" target="3RLbTV6VqlwjEsxKCJEv-5" edge="1">
          <mxGeometry width="100" height="100" relative="1" as="geometry">
            <mxPoint x="520" y="360" as="sourcePoint" />
            <mxPoint x="568" y="400" as="targetPoint" />
          </mxGeometry>
        </mxCell>
        <mxCell id="3RLbTV6VqlwjEsxKCJEv-9" value="Cadastra" style="shape=rhombus;perimeter=rhombusPerimeter;whiteSpace=wrap;html=1;align=center;" parent="1" vertex="1">
          <mxGeometry x="340" y="420" width="90" height="40" as="geometry" />
        </mxCell>
        <mxCell id="3RLbTV6VqlwjEsxKCJEv-10" value="" style="edgeStyle=entityRelationEdgeStyle;fontSize=12;html=1;endArrow=ERoneToMany;rounded=0;exitX=0.5;exitY=1;exitDx=0;exitDy=0;entryX=0.5;entryY=0;entryDx=0;entryDy=0;" parent="1" source="s28GD_r-yV0hMui-Od6E-1" target="3RLbTV6VqlwjEsxKCJEv-9" edge="1">
          <mxGeometry width="100" height="100" relative="1" as="geometry">
            <mxPoint x="330" y="480" as="sourcePoint" />
            <mxPoint x="430" y="380" as="targetPoint" />
          </mxGeometry>
        </mxCell>
        <mxCell id="3RLbTV6VqlwjEsxKCJEv-11" value="" style="edgeStyle=entityRelationEdgeStyle;fontSize=12;html=1;endArrow=ERoneToMany;rounded=0;exitX=0.5;exitY=1;exitDx=0;exitDy=0;entryX=0.5;entryY=0;entryDx=0;entryDy=0;" parent="1" source="3RLbTV6VqlwjEsxKCJEv-9" target="gPxSpxk_2Vq7euESL9tj-22" edge="1">
          <mxGeometry width="100" height="100" relative="1" as="geometry">
            <mxPoint x="330" y="480" as="sourcePoint" />
            <mxPoint x="430" y="380" as="targetPoint" />
          </mxGeometry>
        </mxCell>
        <mxCell id="3RLbTV6VqlwjEsxKCJEv-12" value="" style="edgeStyle=entityRelationEdgeStyle;fontSize=12;html=1;endArrow=ERoneToMany;rounded=0;exitX=0.5;exitY=1;exitDx=0;exitDy=0;entryX=0.5;entryY=0;entryDx=0;entryDy=0;" parent="1" source="gPxSpxk_2Vq7euESL9tj-22" target="gPxSpxk_2Vq7euESL9tj-29" edge="1">
          <mxGeometry width="100" height="100" relative="1" as="geometry">
            <mxPoint x="330" y="680" as="sourcePoint" />
            <mxPoint x="430" y="580" as="targetPoint" />
          </mxGeometry>
        </mxCell>
        <mxCell id="3RLbTV6VqlwjEsxKCJEv-13" value="Receita" style="rounded=1;arcSize=10;whiteSpace=wrap;html=1;align=center;" parent="1" vertex="1">
          <mxGeometry x="240" y="780" width="100" height="40" as="geometry" />
        </mxCell>
        <mxCell id="3RLbTV6VqlwjEsxKCJEv-15" value="" style="edgeStyle=entityRelationEdgeStyle;fontSize=12;html=1;endArrow=ERoneToMany;rounded=0;exitX=0.5;exitY=1;exitDx=0;exitDy=0;entryX=0.5;entryY=0;entryDx=0;entryDy=0;" parent="1" source="gPxSpxk_2Vq7euESL9tj-29" target="3RLbTV6VqlwjEsxKCJEv-13" edge="1">
          <mxGeometry width="100" height="100" relative="1" as="geometry">
            <mxPoint x="350" y="560" as="sourcePoint" />
            <mxPoint x="340" y="610" as="targetPoint" />
          </mxGeometry>
        </mxCell>
        <mxCell id="3RLbTV6VqlwjEsxKCJEv-16" value="Movimenta" style="shape=rhombus;perimeter=rhombusPerimeter;whiteSpace=wrap;html=1;align=center;" parent="1" vertex="1">
          <mxGeometry x="458" y="806.5" width="120" height="60" as="geometry" />
        </mxCell>
        <mxCell id="3RLbTV6VqlwjEsxKCJEv-17" value="mov_estoque" style="rounded=1;arcSize=10;whiteSpace=wrap;html=1;align=center;" parent="1" vertex="1">
          <mxGeometry x="616.75" y="716.5" width="100" height="40" as="geometry" />
        </mxCell>
        <mxCell id="3RLbTV6VqlwjEsxKCJEv-18" value="" style="edgeStyle=entityRelationEdgeStyle;fontSize=12;html=1;endArrow=ERoneToMany;rounded=0;exitX=1;exitY=0.5;exitDx=0;exitDy=0;" parent="1" source="3RLbTV6VqlwjEsxKCJEv-13" target="3RLbTV6VqlwjEsxKCJEv-16" edge="1">
          <mxGeometry width="100" height="100" relative="1" as="geometry">
            <mxPoint x="330" y="680" as="sourcePoint" />
            <mxPoint x="430" y="580" as="targetPoint" />
          </mxGeometry>
        </mxCell>
        <mxCell id="3RLbTV6VqlwjEsxKCJEv-19" value="" style="edgeStyle=entityRelationEdgeStyle;fontSize=12;html=1;endArrow=ERoneToMany;rounded=0;exitX=0.933;exitY=0.45;exitDx=0;exitDy=0;entryX=0;entryY=0.5;entryDx=0;entryDy=0;exitPerimeter=0;" parent="1" source="3RLbTV6VqlwjEsxKCJEv-16" target="3RLbTV6VqlwjEsxKCJEv-17" edge="1">
          <mxGeometry width="100" height="100" relative="1" as="geometry">
            <mxPoint x="390" y="720" as="sourcePoint" />
            <mxPoint x="435" y="720" as="targetPoint" />
          </mxGeometry>
        </mxCell>
        <mxCell id="3RLbTV6VqlwjEsxKCJEv-20" value="Movimenta" style="shape=rhombus;perimeter=rhombusPerimeter;whiteSpace=wrap;html=1;align=center;" parent="1" vertex="1">
          <mxGeometry x="670" y="535" width="90" height="40" as="geometry" />
        </mxCell>
        <mxCell id="3RLbTV6VqlwjEsxKCJEv-21" value="" style="edgeStyle=entityRelationEdgeStyle;fontSize=12;html=1;endArrow=ERoneToMany;rounded=0;exitX=0.5;exitY=1;exitDx=0;exitDy=0;entryX=0.633;entryY=0.05;entryDx=0;entryDy=0;entryPerimeter=0;" parent="1" source="3RLbTV6VqlwjEsxKCJEv-5" target="3RLbTV6VqlwjEsxKCJEv-20" edge="1">
          <mxGeometry width="100" height="100" relative="1" as="geometry">
            <mxPoint x="390" y="720" as="sourcePoint" />
            <mxPoint x="435" y="720" as="targetPoint" />
          </mxGeometry>
        </mxCell>
        <mxCell id="3RLbTV6VqlwjEsxKCJEv-22" value="" style="edgeStyle=entityRelationEdgeStyle;fontSize=12;html=1;endArrow=ERoneToMany;rounded=0;exitX=0.5;exitY=1;exitDx=0;exitDy=0;entryX=0.5;entryY=0;entryDx=0;entryDy=0;" parent="1" source="3RLbTV6VqlwjEsxKCJEv-20" target="3RLbTV6VqlwjEsxKCJEv-17" edge="1">
          <mxGeometry width="100" height="100" relative="1" as="geometry">
            <mxPoint x="730" y="590" as="sourcePoint" />
            <mxPoint x="687" y="622" as="targetPoint" />
          </mxGeometry>
        </mxCell>
        <mxCell id="u_tZqwnpiuRwvKDr9seZ-1" value="" style="edgeStyle=entityRelationEdgeStyle;fontSize=12;html=1;endArrow=ERmandOne;startArrow=ERmandOne;rounded=0;entryX=0;entryY=0.5;entryDx=0;entryDy=0;" parent="1" source="3RLbTV6VqlwjEsxKCJEv-2" target="s28GD_r-yV0hMui-Od6E-10" edge="1">
          <mxGeometry width="100" height="100" relative="1" as="geometry">
            <mxPoint x="310" y="590" as="sourcePoint" />
            <mxPoint x="410" y="490" as="targetPoint" />
          </mxGeometry>
        </mxCell>
        <mxCell id="u_tZqwnpiuRwvKDr9seZ-2" value="" style="edgeStyle=entityRelationEdgeStyle;fontSize=12;html=1;endArrow=ERmandOne;startArrow=ERmandOne;rounded=0;entryX=0.5;entryY=1;entryDx=0;entryDy=0;exitX=0.6;exitY=-0.1;exitDx=0;exitDy=0;exitPerimeter=0;" parent="1" source="gPxSpxk_2Vq7euESL9tj-17" target="3RLbTV6VqlwjEsxKCJEv-2" edge="1">
          <mxGeometry width="100" height="100" relative="1" as="geometry">
            <mxPoint x="120" y="480" as="sourcePoint" />
            <mxPoint x="160" y="480" as="targetPoint" />
          </mxGeometry>
        </mxCell>
        <mxCell id="u_tZqwnpiuRwvKDr9seZ-3" value="Cadastra" style="shape=rhombus;perimeter=rhombusPerimeter;whiteSpace=wrap;html=1;align=center;" parent="1" vertex="1">
          <mxGeometry x="130" y="590" width="90" height="40" as="geometry" />
        </mxCell>
        <mxCell id="u_tZqwnpiuRwvKDr9seZ-4" value="" style="edgeStyle=entityRelationEdgeStyle;fontSize=12;html=1;endArrow=ERmandOne;startArrow=ERmandOne;rounded=0;entryX=0;entryY=0.75;entryDx=0;entryDy=0;exitX=1;exitY=0.5;exitDx=0;exitDy=0;" parent="1" source="u_tZqwnpiuRwvKDr9seZ-3" target="gPxSpxk_2Vq7euESL9tj-22" edge="1">
          <mxGeometry width="100" height="100" relative="1" as="geometry">
            <mxPoint x="120" y="480" as="sourcePoint" />
            <mxPoint x="160" y="480" as="targetPoint" />
          </mxGeometry>
        </mxCell>
        <mxCell id="u_tZqwnpiuRwvKDr9seZ-5" value="" style="edgeStyle=entityRelationEdgeStyle;fontSize=12;html=1;endArrow=ERmandOne;startArrow=ERmandOne;rounded=0;exitX=1;exitY=1;exitDx=0;exitDy=0;" parent="1" source="gPxSpxk_2Vq7euESL9tj-17" target="u_tZqwnpiuRwvKDr9seZ-3" edge="1">
          <mxGeometry width="100" height="100" relative="1" as="geometry">
            <mxPoint x="230" y="620" as="sourcePoint" />
            <mxPoint x="300" y="550" as="targetPoint" />
          </mxGeometry>
        </mxCell>
        <mxCell id="u_tZqwnpiuRwvKDr9seZ-6" value="1,1" style="text;strokeColor=none;align=center;fillColor=none;html=1;verticalAlign=middle;whiteSpace=wrap;rounded=0;" parent="1" vertex="1">
          <mxGeometry x="180" y="270" width="60" height="30" as="geometry" />
        </mxCell>
        <mxCell id="u_tZqwnpiuRwvKDr9seZ-7" value="1,N" style="text;strokeColor=none;align=center;fillColor=none;html=1;verticalAlign=middle;whiteSpace=wrap;rounded=0;" parent="1" vertex="1">
          <mxGeometry x="497.5" y="325" width="60" height="30" as="geometry" />
        </mxCell>
        <mxCell id="u_tZqwnpiuRwvKDr9seZ-8" value="1,N" style="text;strokeColor=none;align=center;fillColor=none;html=1;verticalAlign=middle;whiteSpace=wrap;rounded=0;" parent="1" vertex="1">
          <mxGeometry x="470" y="355" width="60" height="30" as="geometry" />
        </mxCell>
        <mxCell id="u_tZqwnpiuRwvKDr9seZ-10" value="1,N" style="text;strokeColor=none;align=center;fillColor=none;html=1;verticalAlign=middle;whiteSpace=wrap;rounded=0;" parent="1" vertex="1">
          <mxGeometry x="490" y="475.5" width="60" height="30" as="geometry" />
        </mxCell>
        <mxCell id="u_tZqwnpiuRwvKDr9seZ-11" value="1,1" style="text;strokeColor=none;align=center;fillColor=none;html=1;verticalAlign=middle;whiteSpace=wrap;rounded=0;" parent="1" vertex="1">
          <mxGeometry x="110" y="440" width="60" height="30" as="geometry" />
        </mxCell>
        <mxCell id="u_tZqwnpiuRwvKDr9seZ-12" value="1,1" style="text;strokeColor=none;align=center;fillColor=none;html=1;verticalAlign=middle;whiteSpace=wrap;rounded=0;" parent="1" vertex="1">
          <mxGeometry x="-55" y="600" width="60" height="30" as="geometry" />
        </mxCell>
        <mxCell id="u_tZqwnpiuRwvKDr9seZ-13" value="1,N" style="text;strokeColor=none;align=center;fillColor=none;html=1;verticalAlign=middle;whiteSpace=wrap;rounded=0;" parent="1" vertex="1">
          <mxGeometry x="355" y="360" width="60" height="30" as="geometry" />
        </mxCell>
        <mxCell id="u_tZqwnpiuRwvKDr9seZ-14" value="1,N" style="text;strokeColor=none;align=center;fillColor=none;html=1;verticalAlign=middle;whiteSpace=wrap;rounded=0;" parent="1" vertex="1">
          <mxGeometry x="415" y="355" width="60" height="30" as="geometry" />
        </mxCell>
        <mxCell id="u_tZqwnpiuRwvKDr9seZ-15" value="1,N" style="text;strokeColor=none;align=center;fillColor=none;html=1;verticalAlign=middle;whiteSpace=wrap;rounded=0;" parent="1" vertex="1">
          <mxGeometry x="180" y="425" width="60" height="30" as="geometry" />
        </mxCell>
        <mxCell id="u_tZqwnpiuRwvKDr9seZ-16" value="1,N" style="text;strokeColor=none;align=center;fillColor=none;html=1;verticalAlign=middle;whiteSpace=wrap;rounded=0;" parent="1" vertex="1">
          <mxGeometry x="320" y="480" width="60" height="30" as="geometry" />
        </mxCell>
        <mxCell id="u_tZqwnpiuRwvKDr9seZ-17" value="1,1" style="text;strokeColor=none;align=center;fillColor=none;html=1;verticalAlign=middle;whiteSpace=wrap;rounded=0;" parent="1" vertex="1">
          <mxGeometry x="300" y="545" width="60" height="30" as="geometry" />
        </mxCell>
        <mxCell id="u_tZqwnpiuRwvKDr9seZ-18" value="1,1" style="text;strokeColor=none;align=center;fillColor=none;html=1;verticalAlign=middle;whiteSpace=wrap;rounded=0;" parent="1" vertex="1">
          <mxGeometry x="308" y="750" width="60" height="30" as="geometry" />
        </mxCell>
        <mxCell id="u_tZqwnpiuRwvKDr9seZ-19" value="1,1" style="text;strokeColor=none;align=center;fillColor=none;html=1;verticalAlign=middle;whiteSpace=wrap;rounded=0;" parent="1" vertex="1">
          <mxGeometry x="248" y="540" width="60" height="30" as="geometry" />
        </mxCell>
        <mxCell id="u_tZqwnpiuRwvKDr9seZ-20" value="1,1" style="text;strokeColor=none;align=center;fillColor=none;html=1;verticalAlign=middle;whiteSpace=wrap;rounded=0;" parent="1" vertex="1">
          <mxGeometry x="180" y="485" width="60" height="30" as="geometry" />
        </mxCell>
        <mxCell id="u_tZqwnpiuRwvKDr9seZ-21" value="1,1" style="text;strokeColor=none;align=center;fillColor=none;html=1;verticalAlign=middle;whiteSpace=wrap;rounded=0;" parent="1" vertex="1">
          <mxGeometry x="248" y="500" width="60" height="30" as="geometry" />
        </mxCell>
        <mxCell id="u_tZqwnpiuRwvKDr9seZ-22" value="1,1" style="text;strokeColor=none;align=center;fillColor=none;html=1;verticalAlign=middle;whiteSpace=wrap;rounded=0;" parent="1" vertex="1">
          <mxGeometry x="-25" y="663.5" width="60" height="30" as="geometry" />
        </mxCell>
        <mxCell id="u_tZqwnpiuRwvKDr9seZ-23" value="1,1" style="text;strokeColor=none;align=center;fillColor=none;html=1;verticalAlign=middle;whiteSpace=wrap;rounded=0;" parent="1" vertex="1">
          <mxGeometry x="570" y="706.5" width="60" height="30" as="geometry" />
        </mxCell>
        <mxCell id="u_tZqwnpiuRwvKDr9seZ-24" value="1,1" style="text;strokeColor=none;align=center;fillColor=none;html=1;verticalAlign=middle;whiteSpace=wrap;rounded=0;" parent="1" vertex="1">
          <mxGeometry x="675" y="691.5" width="60" height="30" as="geometry" />
        </mxCell>
        <mxCell id="u_tZqwnpiuRwvKDr9seZ-25" value="1,1" style="text;strokeColor=none;align=center;fillColor=none;html=1;verticalAlign=middle;whiteSpace=wrap;rounded=0;" parent="1" vertex="1">
          <mxGeometry x="685" y="450" width="60" height="30" as="geometry" />
        </mxCell>
        <mxCell id="RVWwIAR0HQ4WB9MytvnU-1" value="" style="ellipse;whiteSpace=wrap;html=1;aspect=fixed;fillColor=#181616;" parent="1" vertex="1">
          <mxGeometry x="20" y="200" width="23" height="23" as="geometry" />
        </mxCell>
        <mxCell id="RVWwIAR0HQ4WB9MytvnU-4" value="id" style="text;strokeColor=none;align=center;fillColor=none;html=1;verticalAlign=middle;whiteSpace=wrap;rounded=0;" parent="1" vertex="1">
          <mxGeometry x="-100" y="366.5" width="45" height="30" as="geometry" />
        </mxCell>
        <mxCell id="RVWwIAR0HQ4WB9MytvnU-7" value="" style="strokeWidth=2;html=1;shape=mxgraph.flowchart.annotation_2;align=left;labelPosition=right;pointerEvents=1;fillColor=#181616;rotation=-180;" parent="1" vertex="1">
          <mxGeometry x="35" y="215" width="50" height="140" as="geometry" />
        </mxCell>
        <mxCell id="RVWwIAR0HQ4WB9MytvnU-10" value="" style="ellipse;whiteSpace=wrap;html=1;aspect=fixed;" parent="1" vertex="1">
          <mxGeometry x="20" y="228.5" width="23" height="23" as="geometry" />
        </mxCell>
        <mxCell id="RVWwIAR0HQ4WB9MytvnU-11" value="" style="ellipse;whiteSpace=wrap;html=1;aspect=fixed;" parent="1" vertex="1">
          <mxGeometry x="20" y="260" width="23" height="23" as="geometry" />
        </mxCell>
        <mxCell id="RVWwIAR0HQ4WB9MytvnU-12" value="" style="ellipse;whiteSpace=wrap;html=1;aspect=fixed;" parent="1" vertex="1">
          <mxGeometry x="20" y="287" width="23" height="23" as="geometry" />
        </mxCell>
        <mxCell id="RVWwIAR0HQ4WB9MytvnU-13" value="" style="ellipse;whiteSpace=wrap;html=1;aspect=fixed;" parent="1" vertex="1">
          <mxGeometry x="20" y="313.5" width="23" height="23" as="geometry" />
        </mxCell>
        <mxCell id="RVWwIAR0HQ4WB9MytvnU-14" value="valor" style="text;strokeColor=none;align=center;fillColor=none;html=1;verticalAlign=middle;whiteSpace=wrap;rounded=0;" parent="1" vertex="1">
          <mxGeometry x="-22.5" y="226.5" width="45" height="30" as="geometry" />
        </mxCell>
        <mxCell id="RVWwIAR0HQ4WB9MytvnU-15" value="data_aquisicao" style="text;strokeColor=none;align=center;fillColor=none;html=1;verticalAlign=middle;whiteSpace=wrap;rounded=0;" parent="1" vertex="1">
          <mxGeometry x="-45" y="256.5" width="45" height="30" as="geometry" />
        </mxCell>
        <mxCell id="RVWwIAR0HQ4WB9MytvnU-16" value="data_validade" style="text;strokeColor=none;align=center;fillColor=none;html=1;verticalAlign=middle;whiteSpace=wrap;rounded=0;" parent="1" vertex="1">
          <mxGeometry x="-45" y="283" width="45" height="30" as="geometry" />
        </mxCell>
        <mxCell id="RVWwIAR0HQ4WB9MytvnU-17" value="status" style="text;strokeColor=none;align=center;fillColor=none;html=1;verticalAlign=middle;whiteSpace=wrap;rounded=0;" parent="1" vertex="1">
          <mxGeometry x="-45" y="310" width="45" height="30" as="geometry" />
        </mxCell>
        <mxCell id="RVWwIAR0HQ4WB9MytvnU-18" value="" style="ellipse;whiteSpace=wrap;html=1;aspect=fixed;fillColor=#e3c800;fontColor=#000000;strokeColor=#B09500;" parent="1" vertex="1">
          <mxGeometry x="20" y="343.5" width="23" height="23" as="geometry" />
        </mxCell>
        <mxCell id="RVWwIAR0HQ4WB9MytvnU-19" value="id_usuario(FK)" style="text;whiteSpace=wrap;html=1;" parent="1" vertex="1">
          <mxGeometry x="-65" y="343.5" width="85" height="30" as="geometry" />
        </mxCell>
        <mxCell id="RVWwIAR0HQ4WB9MytvnU-21" value="" style="strokeWidth=2;html=1;shape=mxgraph.flowchart.annotation_1;align=left;pointerEvents=1;fillColor=#181616;rotation=-180;" parent="1" vertex="1">
          <mxGeometry x="-45" y="380" width="50" height="120" as="geometry" />
        </mxCell>
        <mxCell id="RVWwIAR0HQ4WB9MytvnU-23" value="" style="endArrow=none;html=1;rounded=0;entryX=0;entryY=0.5;entryDx=0;entryDy=0;" parent="1" source="RVWwIAR0HQ4WB9MytvnU-21" target="NkKOO6XyAcUCfAbvbqqt-3" edge="1">
          <mxGeometry relative="1" as="geometry">
            <mxPoint x="120" y="440" as="sourcePoint" />
            <mxPoint x="280" y="440" as="targetPoint" />
          </mxGeometry>
        </mxCell>
        <mxCell id="RVWwIAR0HQ4WB9MytvnU-24" value="" style="endArrow=none;html=1;rounded=0;exitX=0;exitY=0.5;exitDx=0;exitDy=0;exitPerimeter=0;entryX=0;entryY=0.5;entryDx=0;entryDy=0;" parent="1" source="RVWwIAR0HQ4WB9MytvnU-7" target="gPxSpxk_2Vq7euESL9tj-1" edge="1">
          <mxGeometry relative="1" as="geometry">
            <mxPoint x="120" y="440" as="sourcePoint" />
            <mxPoint x="280" y="440" as="targetPoint" />
          </mxGeometry>
        </mxCell>
        <mxCell id="RVWwIAR0HQ4WB9MytvnU-26" value="" style="ellipse;whiteSpace=wrap;html=1;aspect=fixed;fillColor=#181616;" parent="1" vertex="1">
          <mxGeometry x="-68" y="367" width="23" height="23" as="geometry" />
        </mxCell>
        <mxCell id="RVWwIAR0HQ4WB9MytvnU-27" value="" style="ellipse;whiteSpace=wrap;html=1;aspect=fixed;" parent="1" vertex="1">
          <mxGeometry x="-23" y="385" width="23" height="23" as="geometry" />
        </mxCell>
        <mxCell id="RVWwIAR0HQ4WB9MytvnU-28" value="" style="ellipse;whiteSpace=wrap;html=1;aspect=fixed;" parent="1" vertex="1">
          <mxGeometry x="-25" y="410" width="23" height="23" as="geometry" />
        </mxCell>
        <mxCell id="RVWwIAR0HQ4WB9MytvnU-29" value="" style="ellipse;whiteSpace=wrap;html=1;aspect=fixed;" parent="1" vertex="1">
          <mxGeometry x="-25" y="440" width="23" height="23" as="geometry" />
        </mxCell>
        <mxCell id="RVWwIAR0HQ4WB9MytvnU-30" value="" style="ellipse;whiteSpace=wrap;html=1;aspect=fixed;" parent="1" vertex="1">
          <mxGeometry x="-25" y="470" width="23" height="23" as="geometry" />
        </mxCell>
        <mxCell id="RVWwIAR0HQ4WB9MytvnU-31" value="" style="ellipse;whiteSpace=wrap;html=1;aspect=fixed;fillColor=#e3c800;fontColor=#000000;strokeColor=#B09500;" parent="1" vertex="1">
          <mxGeometry x="-68" y="487" width="23" height="23" as="geometry" />
        </mxCell>
        <mxCell id="RVWwIAR0HQ4WB9MytvnU-32" value="id_usuario(FK)" style="text;whiteSpace=wrap;html=1;" parent="1" vertex="1">
          <mxGeometry x="-150" y="483.5" width="85" height="30" as="geometry" />
        </mxCell>
        <mxCell id="RVWwIAR0HQ4WB9MytvnU-33" value="categoria" style="text;whiteSpace=wrap;html=1;" parent="1" vertex="1">
          <mxGeometry x="-80" y="385" width="85" height="30" as="geometry" />
        </mxCell>
        <mxCell id="RVWwIAR0HQ4WB9MytvnU-35" value="valor" style="text;whiteSpace=wrap;html=1;" parent="1" vertex="1">
          <mxGeometry x="-56" y="406.5" width="85" height="30" as="geometry" />
        </mxCell>
        <mxCell id="RVWwIAR0HQ4WB9MytvnU-36" value="observacao(opcional)" style="text;whiteSpace=wrap;html=1;" parent="1" vertex="1">
          <mxGeometry x="-150" y="440" width="85" height="30" as="geometry" />
        </mxCell>
        <mxCell id="RVWwIAR0HQ4WB9MytvnU-37" value="data" style="text;whiteSpace=wrap;html=1;" parent="1" vertex="1">
          <mxGeometry x="-56" y="466.5" width="85" height="30" as="geometry" />
        </mxCell>
        <mxCell id="Hd8nIkvjLjB98VnRn2U6-2" value="" style="strokeWidth=2;html=1;shape=mxgraph.flowchart.annotation_1;align=left;pointerEvents=1;fillColor=#181616;rotation=-180;" parent="1" vertex="1">
          <mxGeometry x="-170" y="580" width="50" height="210" as="geometry" />
        </mxCell>
        <mxCell id="Hd8nIkvjLjB98VnRn2U6-3" value="" style="endArrow=none;html=1;rounded=0;exitX=0;exitY=0.5;exitDx=0;exitDy=0;exitPerimeter=0;entryX=0;entryY=0.5;entryDx=0;entryDy=0;" parent="1" source="Hd8nIkvjLjB98VnRn2U6-2" target="gPxSpxk_2Vq7euESL9tj-17" edge="1">
          <mxGeometry relative="1" as="geometry">
            <mxPoint x="-180" y="540" as="sourcePoint" />
            <mxPoint x="-20" y="540" as="targetPoint" />
          </mxGeometry>
        </mxCell>
        <mxCell id="Hd8nIkvjLjB98VnRn2U6-4" value="" style="ellipse;whiteSpace=wrap;html=1;aspect=fixed;fillColor=#181616;" parent="1" vertex="1">
          <mxGeometry x="-193" y="567" width="23" height="23" as="geometry" />
        </mxCell>
        <mxCell id="Hd8nIkvjLjB98VnRn2U6-5" value="id" style="text;strokeColor=none;align=center;fillColor=none;html=1;verticalAlign=middle;whiteSpace=wrap;rounded=0;" parent="1" vertex="1">
          <mxGeometry x="-230" y="563.5" width="45" height="30" as="geometry" />
        </mxCell>
        <mxCell id="Hd8nIkvjLjB98VnRn2U6-6" value="cep" style="text;whiteSpace=wrap;html=1;" parent="1" vertex="1">
          <mxGeometry x="-180" y="587" width="85" height="30" as="geometry" />
        </mxCell>
        <mxCell id="Hd8nIkvjLjB98VnRn2U6-7" value="" style="ellipse;whiteSpace=wrap;html=1;aspect=fixed;" parent="1" vertex="1">
          <mxGeometry x="-150" y="587" width="23" height="23" as="geometry" />
        </mxCell>
        <mxCell id="Hd8nIkvjLjB98VnRn2U6-8" value="" style="ellipse;whiteSpace=wrap;html=1;aspect=fixed;" parent="1" vertex="1">
          <mxGeometry x="-150" y="613.5" width="23" height="23" as="geometry" />
        </mxCell>
        <mxCell id="Hd8nIkvjLjB98VnRn2U6-9" value="" style="ellipse;whiteSpace=wrap;html=1;aspect=fixed;" parent="1" vertex="1">
          <mxGeometry x="-150" y="640" width="23" height="23" as="geometry" />
        </mxCell>
        <mxCell id="Hd8nIkvjLjB98VnRn2U6-10" value="" style="ellipse;whiteSpace=wrap;html=1;aspect=fixed;" parent="1" vertex="1">
          <mxGeometry x="-150" y="670" width="23" height="23" as="geometry" />
        </mxCell>
        <mxCell id="Hd8nIkvjLjB98VnRn2U6-11" value="" style="ellipse;whiteSpace=wrap;html=1;aspect=fixed;" parent="1" vertex="1">
          <mxGeometry x="-150" y="698.5" width="23" height="23" as="geometry" />
        </mxCell>
        <mxCell id="Hd8nIkvjLjB98VnRn2U6-12" value="" style="ellipse;whiteSpace=wrap;html=1;aspect=fixed;" parent="1" vertex="1">
          <mxGeometry x="-150" y="730" width="23" height="23" as="geometry" />
        </mxCell>
        <mxCell id="Hd8nIkvjLjB98VnRn2U6-13" value="" style="ellipse;whiteSpace=wrap;html=1;aspect=fixed;fillColor=#e3c800;fontColor=#000000;strokeColor=#B09500;" parent="1" vertex="1">
          <mxGeometry x="-150" y="760" width="23" height="23" as="geometry" />
        </mxCell>
        <mxCell id="Hd8nIkvjLjB98VnRn2U6-14" value="" style="ellipse;whiteSpace=wrap;html=1;aspect=fixed;fillColor=#e3c800;fontColor=#000000;strokeColor=#B09500;" parent="1" vertex="1">
          <mxGeometry x="-185" y="780" width="23" height="23" as="geometry" />
        </mxCell>
        <mxCell id="Hd8nIkvjLjB98VnRn2U6-15" value="rua" style="text;whiteSpace=wrap;html=1;" parent="1" vertex="1">
          <mxGeometry x="-180" y="613.5" width="85" height="30" as="geometry" />
        </mxCell>
        <mxCell id="Hd8nIkvjLjB98VnRn2U6-16" value="numero" style="text;whiteSpace=wrap;html=1;" parent="1" vertex="1">
          <mxGeometry x="-200" y="640" width="85" height="30" as="geometry" />
        </mxCell>
        <mxCell id="Hd8nIkvjLjB98VnRn2U6-17" value="bairro" style="text;whiteSpace=wrap;html=1;" parent="1" vertex="1">
          <mxGeometry x="-187.5" y="666.5" width="85" height="30" as="geometry" />
        </mxCell>
        <mxCell id="Hd8nIkvjLjB98VnRn2U6-18" value="cidade" style="text;whiteSpace=wrap;html=1;" parent="1" vertex="1">
          <mxGeometry x="-193" y="695" width="85" height="30" as="geometry" />
        </mxCell>
        <mxCell id="Hd8nIkvjLjB98VnRn2U6-19" value="estado" style="text;whiteSpace=wrap;html=1;" parent="1" vertex="1">
          <mxGeometry x="-193" y="726.5" width="85" height="30" as="geometry" />
        </mxCell>
        <mxCell id="Hd8nIkvjLjB98VnRn2U6-20" value="id_cliente(FK)" style="text;whiteSpace=wrap;html=1;" parent="1" vertex="1">
          <mxGeometry x="-230" y="756.5" width="85" height="30" as="geometry" />
        </mxCell>
        <mxCell id="Hd8nIkvjLjB98VnRn2U6-21" value="id_orcamento(FK)" style="text;whiteSpace=wrap;html=1;" parent="1" vertex="1">
          <mxGeometry x="-285" y="776.5" width="85" height="30" as="geometry" />
        </mxCell>
        <mxCell id="Hd8nIkvjLjB98VnRn2U6-23" value="" style="endArrow=none;html=1;rounded=0;exitX=1;exitY=0.5;exitDx=0;exitDy=0;" parent="1" source="3RLbTV6VqlwjEsxKCJEv-17" target="Hd8nIkvjLjB98VnRn2U6-24" edge="1">
          <mxGeometry relative="1" as="geometry">
            <mxPoint x="740" y="720" as="sourcePoint" />
            <mxPoint x="760" y="710" as="targetPoint" />
          </mxGeometry>
        </mxCell>
        <mxCell id="Hd8nIkvjLjB98VnRn2U6-24" value="" style="strokeWidth=2;html=1;shape=mxgraph.flowchart.annotation_1;align=left;pointerEvents=1;" parent="1" vertex="1">
          <mxGeometry x="720" y="660" width="50" height="100" as="geometry" />
        </mxCell>
        <mxCell id="Hd8nIkvjLjB98VnRn2U6-25" value="" style="ellipse;whiteSpace=wrap;html=1;aspect=fixed;fillColor=#181616;" parent="1" vertex="1">
          <mxGeometry x="770" y="647" width="23" height="23" as="geometry" />
        </mxCell>
        <mxCell id="Hd8nIkvjLjB98VnRn2U6-26" value="id" style="text;strokeColor=none;align=center;fillColor=none;html=1;verticalAlign=middle;whiteSpace=wrap;rounded=0;" parent="1" vertex="1">
          <mxGeometry x="780" y="643.5" width="45" height="30" as="geometry" />
        </mxCell>
        <mxCell id="Hd8nIkvjLjB98VnRn2U6-27" value="" style="ellipse;whiteSpace=wrap;html=1;aspect=fixed;" parent="1" vertex="1">
          <mxGeometry x="723.5" y="670" width="23" height="23" as="geometry" />
        </mxCell>
        <mxCell id="Hd8nIkvjLjB98VnRn2U6-28" value="" style="ellipse;whiteSpace=wrap;html=1;aspect=fixed;" parent="1" vertex="1">
          <mxGeometry x="723.5" y="698.5" width="23" height="23" as="geometry" />
        </mxCell>
        <mxCell id="Hd8nIkvjLjB98VnRn2U6-29" value="" style="ellipse;whiteSpace=wrap;html=1;aspect=fixed;" parent="1" vertex="1">
          <mxGeometry x="723.5" y="725" width="23" height="23" as="geometry" />
        </mxCell>
        <mxCell id="Hd8nIkvjLjB98VnRn2U6-30" value="" style="ellipse;whiteSpace=wrap;html=1;aspect=fixed;fillColor=#e3c800;fontColor=#000000;strokeColor=#B09500;" parent="1" vertex="1">
          <mxGeometry x="770" y="748" width="23" height="23" as="geometry" />
        </mxCell>
        <mxCell id="Hd8nIkvjLjB98VnRn2U6-31" value="quantidade" style="text;strokeColor=none;align=center;fillColor=none;html=1;verticalAlign=middle;whiteSpace=wrap;rounded=0;" parent="1" vertex="1">
          <mxGeometry x="760" y="666.5" width="45" height="30" as="geometry" />
        </mxCell>
        <mxCell id="Hd8nIkvjLjB98VnRn2U6-32" value="data_entrada" style="text;strokeColor=none;align=center;fillColor=none;html=1;verticalAlign=middle;whiteSpace=wrap;rounded=0;" parent="1" vertex="1">
          <mxGeometry x="765" y="695" width="45" height="30" as="geometry" />
        </mxCell>
        <mxCell id="Hd8nIkvjLjB98VnRn2U6-33" value="data_saida" style="text;strokeColor=none;align=center;fillColor=none;html=1;verticalAlign=middle;whiteSpace=wrap;rounded=0;" parent="1" vertex="1">
          <mxGeometry x="759" y="718" width="45" height="30" as="geometry" />
        </mxCell>
        <mxCell id="Hd8nIkvjLjB98VnRn2U6-34" value="id_produto(FK)" style="text;strokeColor=none;align=center;fillColor=none;html=1;verticalAlign=middle;whiteSpace=wrap;rounded=0;" parent="1" vertex="1">
          <mxGeometry x="817" y="745" width="45" height="30" as="geometry" />
        </mxCell>
        <mxCell id="Hd8nIkvjLjB98VnRn2U6-35" value="" style="strokeWidth=2;html=1;shape=mxgraph.flowchart.annotation_1;align=left;pointerEvents=1;" parent="1" vertex="1">
          <mxGeometry x="743" y="130" width="50" height="200" as="geometry" />
        </mxCell>
        <mxCell id="Hd8nIkvjLjB98VnRn2U6-36" value="" style="endArrow=none;html=1;rounded=0;entryX=0;entryY=0.5;entryDx=0;entryDy=0;entryPerimeter=0;exitX=1;exitY=0.5;exitDx=0;exitDy=0;" parent="1" source="s28GD_r-yV0hMui-Od6E-4" target="Hd8nIkvjLjB98VnRn2U6-35" edge="1">
          <mxGeometry relative="1" as="geometry">
            <mxPoint x="360" y="210" as="sourcePoint" />
            <mxPoint x="520" y="210" as="targetPoint" />
          </mxGeometry>
        </mxCell>
        <mxCell id="Hd8nIkvjLjB98VnRn2U6-37" value="" style="strokeWidth=2;html=1;shape=mxgraph.flowchart.annotation_1;align=left;pointerEvents=1;" parent="1" vertex="1">
          <mxGeometry x="812" y="370" width="13" height="140" as="geometry" />
        </mxCell>
        <mxCell id="Hd8nIkvjLjB98VnRn2U6-38" value="" style="endArrow=none;html=1;rounded=0;exitX=1;exitY=0.5;exitDx=0;exitDy=0;" parent="1" source="3RLbTV6VqlwjEsxKCJEv-5" edge="1">
          <mxGeometry relative="1" as="geometry">
            <mxPoint x="730" y="250" as="sourcePoint" />
            <mxPoint x="810" y="441" as="targetPoint" />
          </mxGeometry>
        </mxCell>
        <mxCell id="Hd8nIkvjLjB98VnRn2U6-40" value="" style="strokeWidth=2;html=1;shape=mxgraph.flowchart.annotation_1;align=left;pointerEvents=1;fillColor=#181616;rotation=-180;" parent="1" vertex="1">
          <mxGeometry x="180" y="795.5" width="30" height="137" as="geometry" />
        </mxCell>
        <mxCell id="Hd8nIkvjLjB98VnRn2U6-41" value="" style="endArrow=none;html=1;rounded=0;entryX=0;entryY=0.5;entryDx=0;entryDy=0;exitX=0;exitY=0.5;exitDx=0;exitDy=0;exitPerimeter=0;" parent="1" source="Hd8nIkvjLjB98VnRn2U6-40" target="3RLbTV6VqlwjEsxKCJEv-13" edge="1">
          <mxGeometry relative="1" as="geometry">
            <mxPoint x="60" y="820" as="sourcePoint" />
            <mxPoint x="220" y="820" as="targetPoint" />
          </mxGeometry>
        </mxCell>
        <mxCell id="Hd8nIkvjLjB98VnRn2U6-42" value="" style="strokeWidth=2;html=1;shape=mxgraph.flowchart.annotation_1;align=left;pointerEvents=1;" parent="1" vertex="1">
          <mxGeometry x="591.75" y="496.5" width="16.5" height="185" as="geometry" />
        </mxCell>
        <mxCell id="Hd8nIkvjLjB98VnRn2U6-43" value="" style="endArrow=none;html=1;rounded=0;exitX=1;exitY=0.575;exitDx=0;exitDy=0;entryX=0;entryY=0.5;entryDx=0;entryDy=0;entryPerimeter=0;exitPerimeter=0;" parent="1" source="s28GD_r-yV0hMui-Od6E-6" target="Hd8nIkvjLjB98VnRn2U6-42" edge="1">
          <mxGeometry relative="1" as="geometry">
            <mxPoint x="795" y="445" as="sourcePoint" />
            <mxPoint x="820" y="451" as="targetPoint" />
          </mxGeometry>
        </mxCell>
        <mxCell id="Hd8nIkvjLjB98VnRn2U6-44" value="" style="strokeWidth=2;html=1;shape=mxgraph.flowchart.annotation_1;align=left;pointerEvents=1;fillColor=#181616;rotation=-180;" parent="1" vertex="1">
          <mxGeometry x="60" y="452.5" width="50" height="315" as="geometry" />
        </mxCell>
        <mxCell id="Hd8nIkvjLjB98VnRn2U6-45" value="" style="endArrow=none;html=1;rounded=0;entryX=0;entryY=0.75;entryDx=0;entryDy=0;exitX=0;exitY=0.5;exitDx=0;exitDy=0;exitPerimeter=0;" parent="1" source="Hd8nIkvjLjB98VnRn2U6-44" target="s28GD_r-yV0hMui-Od6E-10" edge="1">
          <mxGeometry relative="1" as="geometry">
            <mxPoint x="225" y="730" as="sourcePoint" />
            <mxPoint x="290" y="720" as="targetPoint" />
          </mxGeometry>
        </mxCell>
        <mxCell id="Hd8nIkvjLjB98VnRn2U6-46" value="id" style="text;strokeColor=none;align=center;fillColor=none;html=1;verticalAlign=middle;whiteSpace=wrap;rounded=0;" parent="1" vertex="1">
          <mxGeometry x="-22.5" y="196.5" width="45" height="30" as="geometry" />
        </mxCell>
        <mxCell id="Hd8nIkvjLjB98VnRn2U6-47" value="" style="strokeWidth=2;html=1;shape=mxgraph.flowchart.annotation_1;align=left;pointerEvents=1;" parent="1" vertex="1">
          <mxGeometry x="402" y="480" width="13" height="320" as="geometry" />
        </mxCell>
        <mxCell id="Hd8nIkvjLjB98VnRn2U6-48" value="" style="endArrow=none;html=1;rounded=0;exitX=1;exitY=0.75;exitDx=0;exitDy=0;entryX=-0.077;entryY=0.588;entryDx=0;entryDy=0;entryPerimeter=0;" parent="1" source="gPxSpxk_2Vq7euESL9tj-22" target="Hd8nIkvjLjB98VnRn2U6-47" edge="1">
          <mxGeometry relative="1" as="geometry">
            <mxPoint x="795" y="445" as="sourcePoint" />
            <mxPoint x="820" y="451" as="targetPoint" />
          </mxGeometry>
        </mxCell>
        <mxCell id="Hd8nIkvjLjB98VnRn2U6-50" value="" style="strokeWidth=2;html=1;shape=mxgraph.flowchart.annotation_1;align=left;pointerEvents=1;fillColor=#181616;rotation=-180;" parent="1" vertex="1">
          <mxGeometry x="360" y="125" width="50" height="170" as="geometry" />
        </mxCell>
        <mxCell id="Hd8nIkvjLjB98VnRn2U6-51" value="" style="endArrow=none;html=1;rounded=0;exitX=0;exitY=0.5;exitDx=0;exitDy=0;exitPerimeter=0;" parent="1" source="Hd8nIkvjLjB98VnRn2U6-50" target="s28GD_r-yV0hMui-Od6E-1" edge="1">
          <mxGeometry relative="1" as="geometry">
            <mxPoint x="160" y="420" as="sourcePoint" />
            <mxPoint x="320" y="420" as="targetPoint" />
          </mxGeometry>
        </mxCell>
        <mxCell id="70w3Kitz9S1X3-NEDdnX-3" value="" style="ellipse;whiteSpace=wrap;html=1;aspect=fixed;fillColor=#181616;" parent="1" vertex="1">
          <mxGeometry x="165" y="783" width="23" height="23" as="geometry" />
        </mxCell>
        <mxCell id="70w3Kitz9S1X3-NEDdnX-4" value="id" style="text;whiteSpace=wrap;html=1;" parent="1" vertex="1">
          <mxGeometry x="150" y="783" width="15" height="30" as="geometry" />
        </mxCell>
        <mxCell id="70w3Kitz9S1X3-NEDdnX-5" value="" style="ellipse;whiteSpace=wrap;html=1;aspect=fixed;" parent="1" vertex="1">
          <mxGeometry x="180" y="806.5" width="23" height="23" as="geometry" />
        </mxCell>
        <mxCell id="70w3Kitz9S1X3-NEDdnX-6" value="" style="ellipse;whiteSpace=wrap;html=1;aspect=fixed;" parent="1" vertex="1">
          <mxGeometry x="181" y="836.5" width="23" height="23" as="geometry" />
        </mxCell>
        <mxCell id="70w3Kitz9S1X3-NEDdnX-8" value="" style="ellipse;whiteSpace=wrap;html=1;aspect=fixed;" parent="1" vertex="1">
          <mxGeometry x="180" y="863" width="23" height="23" as="geometry" />
        </mxCell>
        <mxCell id="70w3Kitz9S1X3-NEDdnX-10" value="" style="ellipse;whiteSpace=wrap;html=1;aspect=fixed;fillColor=#e3c800;fontColor=#000000;strokeColor=#B09500;" parent="1" vertex="1">
          <mxGeometry x="181" y="889.75" width="23" height="23" as="geometry" />
        </mxCell>
        <mxCell id="70w3Kitz9S1X3-NEDdnX-11" value="" style="ellipse;whiteSpace=wrap;html=1;aspect=fixed;fillColor=#e3c800;fontColor=#000000;strokeColor=#B09500;" parent="1" vertex="1">
          <mxGeometry x="163.5" y="919.75" width="23" height="23" as="geometry" />
        </mxCell>
        <mxCell id="70w3Kitz9S1X3-NEDdnX-12" value="descricao" style="text;whiteSpace=wrap;html=1;" parent="1" vertex="1">
          <mxGeometry x="120" y="833" width="85" height="30" as="geometry" />
        </mxCell>
        <mxCell id="70w3Kitz9S1X3-NEDdnX-13" value="valor" style="text;whiteSpace=wrap;html=1;" parent="1" vertex="1">
          <mxGeometry x="149" y="803" width="85" height="30" as="geometry" />
        </mxCell>
        <mxCell id="70w3Kitz9S1X3-NEDdnX-14" value="data" style="text;whiteSpace=wrap;html=1;" parent="1" vertex="1">
          <mxGeometry x="149" y="859.5" width="85" height="30" as="geometry" />
        </mxCell>
        <mxCell id="70w3Kitz9S1X3-NEDdnX-15" value="id_pedido(FK)" style="text;html=1;align=center;verticalAlign=middle;resizable=0;points=[];autosize=1;strokeColor=none;fillColor=none;" parent="1" vertex="1">
          <mxGeometry x="85" y="886.25" width="100" height="30" as="geometry" />
        </mxCell>
        <mxCell id="70w3Kitz9S1X3-NEDdnX-16" value="id_usuario(FK)" style="text;html=1;align=center;verticalAlign=middle;resizable=0;points=[];autosize=1;strokeColor=none;fillColor=none;" parent="1" vertex="1">
          <mxGeometry x="69" y="916.75" width="100" height="30" as="geometry" />
        </mxCell>
        <mxCell id="70w3Kitz9S1X3-NEDdnX-18" value="" style="ellipse;whiteSpace=wrap;html=1;aspect=fixed;fillColor=#181616;" parent="1" vertex="1">
          <mxGeometry x="787" y="120" width="23" height="23" as="geometry" />
        </mxCell>
        <mxCell id="70w3Kitz9S1X3-NEDdnX-19" value="nome" style="text;strokeColor=none;align=center;fillColor=none;html=1;verticalAlign=middle;whiteSpace=wrap;rounded=0;" parent="1" vertex="1">
          <mxGeometry x="772" y="139.5" width="45" height="30" as="geometry" />
        </mxCell>
        <mxCell id="70w3Kitz9S1X3-NEDdnX-20" value="" style="ellipse;whiteSpace=wrap;html=1;aspect=fixed;" parent="1" vertex="1">
          <mxGeometry x="745" y="143" width="23" height="23" as="geometry" />
        </mxCell>
        <mxCell id="70w3Kitz9S1X3-NEDdnX-21" value="" style="ellipse;whiteSpace=wrap;html=1;aspect=fixed;" parent="1" vertex="1">
          <mxGeometry x="745" y="173.5" width="23" height="23" as="geometry" />
        </mxCell>
        <mxCell id="70w3Kitz9S1X3-NEDdnX-22" value="" style="ellipse;whiteSpace=wrap;html=1;aspect=fixed;" parent="1" vertex="1">
          <mxGeometry x="745" y="205.5" width="23" height="23" as="geometry" />
        </mxCell>
        <mxCell id="70w3Kitz9S1X3-NEDdnX-23" value="" style="ellipse;whiteSpace=wrap;html=1;aspect=fixed;" parent="1" vertex="1">
          <mxGeometry x="747" y="233.5" width="23" height="23" as="geometry" />
        </mxCell>
        <mxCell id="70w3Kitz9S1X3-NEDdnX-24" value="" style="ellipse;whiteSpace=wrap;html=1;aspect=fixed;" parent="1" vertex="1">
          <mxGeometry x="747" y="263.5" width="23" height="23" as="geometry" />
        </mxCell>
        <mxCell id="70w3Kitz9S1X3-NEDdnX-25" value="" style="ellipse;whiteSpace=wrap;html=1;aspect=fixed;" parent="1" vertex="1">
          <mxGeometry x="747" y="290.5" width="23" height="23" as="geometry" />
        </mxCell>
        <mxCell id="70w3Kitz9S1X3-NEDdnX-27" value="" style="ellipse;whiteSpace=wrap;html=1;aspect=fixed;fillColor=#e3c800;fontColor=#000000;strokeColor=#B09500;" parent="1" vertex="1">
          <mxGeometry x="791" y="318.5" width="23" height="23" as="geometry" />
        </mxCell>
        <mxCell id="70w3Kitz9S1X3-NEDdnX-28" value="documento" style="text;strokeColor=none;align=center;fillColor=none;html=1;verticalAlign=middle;whiteSpace=wrap;rounded=0;" parent="1" vertex="1">
          <mxGeometry x="825" y="120" width="45" height="30" as="geometry" />
        </mxCell>
        <mxCell id="70w3Kitz9S1X3-NEDdnX-30" value="email" style="text;strokeColor=none;align=center;fillColor=none;html=1;verticalAlign=middle;whiteSpace=wrap;rounded=0;" parent="1" vertex="1">
          <mxGeometry x="772" y="169.5" width="45" height="30" as="geometry" />
        </mxCell>
        <mxCell id="70w3Kitz9S1X3-NEDdnX-31" value="telefone" style="text;strokeColor=none;align=center;fillColor=none;html=1;verticalAlign=middle;whiteSpace=wrap;rounded=0;" parent="1" vertex="1">
          <mxGeometry x="780" y="202" width="45" height="30" as="geometry" />
        </mxCell>
        <mxCell id="70w3Kitz9S1X3-NEDdnX-32" value="data_nascimento(opcional)" style="text;strokeColor=none;align=center;fillColor=none;html=1;verticalAlign=middle;whiteSpace=wrap;rounded=0;" parent="1" vertex="1">
          <mxGeometry x="830" y="230" width="45" height="30" as="geometry" />
        </mxCell>
        <mxCell id="70w3Kitz9S1X3-NEDdnX-34" value="data_cadastro" style="text;strokeColor=none;align=center;fillColor=none;html=1;verticalAlign=middle;whiteSpace=wrap;rounded=0;" parent="1" vertex="1">
          <mxGeometry x="796" y="260.5" width="45" height="30" as="geometry" />
        </mxCell>
        <mxCell id="70w3Kitz9S1X3-NEDdnX-35" value="status" style="text;strokeColor=none;align=center;fillColor=none;html=1;verticalAlign=middle;whiteSpace=wrap;rounded=0;" parent="1" vertex="1">
          <mxGeometry x="773" y="287.5" width="45" height="30" as="geometry" />
        </mxCell>
        <mxCell id="70w3Kitz9S1X3-NEDdnX-37" value="id_usuario(FK)" style="text;strokeColor=none;align=center;fillColor=none;html=1;verticalAlign=middle;whiteSpace=wrap;rounded=0;" parent="1" vertex="1">
          <mxGeometry x="837" y="315" width="45" height="30" as="geometry" />
        </mxCell>
        <mxCell id="5ZAwL2VBmsHN6tSApnj3-2" value="" style="ellipse;whiteSpace=wrap;html=1;aspect=fixed;fillColor=#181616;" parent="1" vertex="1">
          <mxGeometry x="825" y="357" width="23" height="23" as="geometry" />
        </mxCell>
        <mxCell id="5ZAwL2VBmsHN6tSApnj3-5" value="" style="ellipse;whiteSpace=wrap;html=1;aspect=fixed;fillColor=#e3c800;fontColor=#000000;strokeColor=#B09500;" parent="1" vertex="1">
          <mxGeometry x="825" y="496.5" width="23" height="23" as="geometry" />
        </mxCell>
        <mxCell id="5ZAwL2VBmsHN6tSApnj3-6" value="id_produto(FK)" style="text;strokeColor=none;align=center;fillColor=none;html=1;verticalAlign=middle;whiteSpace=wrap;rounded=0;" parent="1" vertex="1">
          <mxGeometry x="870" y="493" width="45" height="30" as="geometry" />
        </mxCell>
        <mxCell id="5ZAwL2VBmsHN6tSApnj3-7" value="id" style="text;strokeColor=none;align=center;fillColor=none;html=1;verticalAlign=middle;whiteSpace=wrap;rounded=0;" parent="1" vertex="1">
          <mxGeometry x="836" y="355" width="45" height="30" as="geometry" />
        </mxCell>
        <mxCell id="5ZAwL2VBmsHN6tSApnj3-8" value="" style="ellipse;whiteSpace=wrap;html=1;aspect=fixed;" parent="1" vertex="1">
          <mxGeometry x="816" y="382" width="23" height="23" as="geometry" />
        </mxCell>
        <mxCell id="5ZAwL2VBmsHN6tSApnj3-9" value="" style="ellipse;whiteSpace=wrap;html=1;aspect=fixed;" parent="1" vertex="1">
          <mxGeometry x="817" y="408" width="23" height="23" as="geometry" />
        </mxCell>
        <mxCell id="5ZAwL2VBmsHN6tSApnj3-10" value="" style="ellipse;whiteSpace=wrap;html=1;aspect=fixed;" parent="1" vertex="1">
          <mxGeometry x="816" y="436.5" width="23" height="23" as="geometry" />
        </mxCell>
        <mxCell id="5ZAwL2VBmsHN6tSApnj3-11" value="" style="ellipse;whiteSpace=wrap;html=1;aspect=fixed;" parent="1" vertex="1">
          <mxGeometry x="816" y="466.5" width="23" height="23" as="geometry" />
        </mxCell>
        <mxCell id="5ZAwL2VBmsHN6tSApnj3-12" value="quantidade" style="text;strokeColor=none;align=center;fillColor=none;html=1;verticalAlign=middle;whiteSpace=wrap;rounded=0;" parent="1" vertex="1">
          <mxGeometry x="851" y="380" width="45" height="30" as="geometry" />
        </mxCell>
        <mxCell id="5ZAwL2VBmsHN6tSApnj3-13" value="nome" style="text;strokeColor=none;align=center;fillColor=none;html=1;verticalAlign=middle;whiteSpace=wrap;rounded=0;" parent="1" vertex="1">
          <mxGeometry x="840" y="405" width="45" height="30" as="geometry" />
        </mxCell>
        <mxCell id="5ZAwL2VBmsHN6tSApnj3-14" value="categoria" style="text;strokeColor=none;align=center;fillColor=none;html=1;verticalAlign=middle;whiteSpace=wrap;rounded=0;" parent="1" vertex="1">
          <mxGeometry x="847" y="433" width="45" height="30" as="geometry" />
        </mxCell>
        <mxCell id="5ZAwL2VBmsHN6tSApnj3-15" value="valor" style="text;strokeColor=none;align=center;fillColor=none;html=1;verticalAlign=middle;whiteSpace=wrap;rounded=0;" parent="1" vertex="1">
          <mxGeometry x="838" y="463" width="45" height="30" as="geometry" />
        </mxCell>
        <mxCell id="5ZAwL2VBmsHN6tSApnj3-18" value="" style="ellipse;whiteSpace=wrap;html=1;aspect=fixed;fillColor=#181616;" parent="1" vertex="1">
          <mxGeometry x="342" y="112.5" width="23" height="23" as="geometry" />
        </mxCell>
        <mxCell id="5ZAwL2VBmsHN6tSApnj3-19" value="documento" style="text;strokeColor=none;align=center;fillColor=none;html=1;verticalAlign=middle;whiteSpace=wrap;rounded=0;" parent="1" vertex="1">
          <mxGeometry x="285" y="109" width="45" height="30" as="geometry" />
        </mxCell>
        <mxCell id="5ZAwL2VBmsHN6tSApnj3-20" value="" style="ellipse;whiteSpace=wrap;html=1;aspect=fixed;" parent="1" vertex="1">
          <mxGeometry x="380" y="135.5" width="23" height="23" as="geometry" />
        </mxCell>
        <mxCell id="5ZAwL2VBmsHN6tSApnj3-21" value="" style="ellipse;whiteSpace=wrap;html=1;aspect=fixed;" parent="1" vertex="1">
          <mxGeometry x="380" y="166" width="23" height="23" as="geometry" />
        </mxCell>
        <mxCell id="5ZAwL2VBmsHN6tSApnj3-22" value="" style="ellipse;whiteSpace=wrap;html=1;aspect=fixed;" parent="1" vertex="1">
          <mxGeometry x="380" y="197" width="23" height="23" as="geometry" />
        </mxCell>
        <mxCell id="5ZAwL2VBmsHN6tSApnj3-23" value="" style="ellipse;whiteSpace=wrap;html=1;aspect=fixed;" parent="1" vertex="1">
          <mxGeometry x="381" y="226.5" width="23" height="23" as="geometry" />
        </mxCell>
        <mxCell id="5ZAwL2VBmsHN6tSApnj3-24" value="" style="ellipse;whiteSpace=wrap;html=1;aspect=fixed;" parent="1" vertex="1">
          <mxGeometry x="381" y="256.5" width="23" height="23" as="geometry" />
        </mxCell>
        <mxCell id="5ZAwL2VBmsHN6tSApnj3-25" value="nome" style="text;strokeColor=none;align=center;fillColor=none;html=1;verticalAlign=middle;whiteSpace=wrap;rounded=0;" parent="1" vertex="1">
          <mxGeometry x="340" y="132" width="45" height="30" as="geometry" />
        </mxCell>
        <mxCell id="5ZAwL2VBmsHN6tSApnj3-26" value="email" style="text;strokeColor=none;align=center;fillColor=none;html=1;verticalAlign=middle;whiteSpace=wrap;rounded=0;" parent="1" vertex="1">
          <mxGeometry x="336" y="162.5" width="45" height="30" as="geometry" />
        </mxCell>
        <mxCell id="5ZAwL2VBmsHN6tSApnj3-27" value="telefone" style="text;strokeColor=none;align=center;fillColor=none;html=1;verticalAlign=middle;whiteSpace=wrap;rounded=0;" parent="1" vertex="1">
          <mxGeometry x="330" y="192.5" width="45" height="30" as="geometry" />
        </mxCell>
        <mxCell id="5ZAwL2VBmsHN6tSApnj3-28" value="senha" style="text;strokeColor=none;align=center;fillColor=none;html=1;verticalAlign=middle;whiteSpace=wrap;rounded=0;" parent="1" vertex="1">
          <mxGeometry x="335" y="223" width="45" height="30" as="geometry" />
        </mxCell>
        <mxCell id="5ZAwL2VBmsHN6tSApnj3-29" value="status" style="text;strokeColor=none;align=center;fillColor=none;html=1;verticalAlign=middle;whiteSpace=wrap;rounded=0;" parent="1" vertex="1">
          <mxGeometry x="331" y="251.5" width="45" height="30" as="geometry" />
        </mxCell>
        <mxCell id="5ZAwL2VBmsHN6tSApnj3-31" value="" style="ellipse;whiteSpace=wrap;html=1;aspect=fixed;fillColor=#181616;" parent="1" vertex="1">
          <mxGeometry x="607" y="485" width="23" height="23" as="geometry" />
        </mxCell>
        <mxCell id="5ZAwL2VBmsHN6tSApnj3-32" value="id" style="text;strokeColor=none;align=center;fillColor=none;html=1;verticalAlign=middle;whiteSpace=wrap;rounded=0;" parent="1" vertex="1">
          <mxGeometry x="620" y="483.5" width="45" height="30" as="geometry" />
        </mxCell>
        <mxCell id="5ZAwL2VBmsHN6tSApnj3-33" value="nome" style="text;strokeColor=none;align=center;fillColor=none;html=1;verticalAlign=middle;whiteSpace=wrap;rounded=0;" parent="1" vertex="1">
          <mxGeometry x="612.5" y="505.5" width="45" height="30" as="geometry" />
        </mxCell>
        <mxCell id="5ZAwL2VBmsHN6tSApnj3-34" value="" style="ellipse;whiteSpace=wrap;html=1;aspect=fixed;" parent="1" vertex="1">
          <mxGeometry x="593.75" y="509" width="23" height="23" as="geometry" />
        </mxCell>
        <mxCell id="5ZAwL2VBmsHN6tSApnj3-35" value="" style="ellipse;whiteSpace=wrap;html=1;aspect=fixed;" parent="1" vertex="1">
          <mxGeometry x="593.75" y="535" width="23" height="23" as="geometry" />
        </mxCell>
        <mxCell id="5ZAwL2VBmsHN6tSApnj3-36" value="" style="ellipse;whiteSpace=wrap;html=1;aspect=fixed;" parent="1" vertex="1">
          <mxGeometry x="593.75" y="561.5" width="23" height="23" as="geometry" />
        </mxCell>
        <mxCell id="5ZAwL2VBmsHN6tSApnj3-37" value="" style="ellipse;whiteSpace=wrap;html=1;aspect=fixed;" parent="1" vertex="1">
          <mxGeometry x="595.75" y="586.5" width="23" height="23" as="geometry" />
        </mxCell>
        <mxCell id="5ZAwL2VBmsHN6tSApnj3-38" value="" style="ellipse;whiteSpace=wrap;html=1;aspect=fixed;" parent="1" vertex="1">
          <mxGeometry x="596.75" y="612.5" width="23" height="23" as="geometry" />
        </mxCell>
        <mxCell id="5ZAwL2VBmsHN6tSApnj3-39" value="" style="ellipse;whiteSpace=wrap;html=1;aspect=fixed;" parent="1" vertex="1">
          <mxGeometry x="597.75" y="638.5" width="23" height="23" as="geometry" />
        </mxCell>
        <mxCell id="5ZAwL2VBmsHN6tSApnj3-40" value="" style="ellipse;whiteSpace=wrap;html=1;aspect=fixed;fillColor=#e3c800;fontColor=#000000;strokeColor=#B09500;" parent="1" vertex="1">
          <mxGeometry x="598" y="665.5" width="23" height="23" as="geometry" />
        </mxCell>
        <mxCell id="5ZAwL2VBmsHN6tSApnj3-41" value="id_usuario(FK)" style="text;strokeColor=none;align=center;fillColor=none;html=1;verticalAlign=middle;whiteSpace=wrap;rounded=0;fontSize=11;" parent="1" vertex="1">
          <mxGeometry x="657.5" y="661.5" width="2.5" height="30" as="geometry" />
        </mxCell>
        <mxCell id="5ZAwL2VBmsHN6tSApnj3-42" value="valor" style="text;strokeColor=none;align=center;fillColor=none;html=1;verticalAlign=middle;whiteSpace=wrap;rounded=0;" parent="1" vertex="1">
          <mxGeometry x="612.5" y="530.5" width="45" height="30" as="geometry" />
        </mxCell>
        <mxCell id="5ZAwL2VBmsHN6tSApnj3-43" value="categoria" style="text;strokeColor=none;align=center;fillColor=none;html=1;verticalAlign=middle;whiteSpace=wrap;rounded=0;" parent="1" vertex="1">
          <mxGeometry x="625" y="558.5" width="45" height="30" as="geometry" />
        </mxCell>
        <mxCell id="5ZAwL2VBmsHN6tSApnj3-44" value="tipo" style="text;strokeColor=none;align=center;fillColor=none;html=1;verticalAlign=middle;whiteSpace=wrap;rounded=0;" parent="1" vertex="1">
          <mxGeometry x="615" y="583.5" width="45" height="30" as="geometry" />
        </mxCell>
        <mxCell id="5ZAwL2VBmsHN6tSApnj3-45" value="observacao" style="text;strokeColor=none;align=center;fillColor=none;html=1;verticalAlign=middle;whiteSpace=wrap;rounded=0;" parent="1" vertex="1">
          <mxGeometry x="630" y="610" width="45" height="30" as="geometry" />
        </mxCell>
        <mxCell id="5ZAwL2VBmsHN6tSApnj3-46" value="status" style="text;strokeColor=none;align=center;fillColor=none;html=1;verticalAlign=middle;whiteSpace=wrap;rounded=0;" parent="1" vertex="1">
          <mxGeometry x="619" y="635" width="45" height="30" as="geometry" />
        </mxCell>
        <mxCell id="5ZAwL2VBmsHN6tSApnj3-48" value="" style="ellipse;whiteSpace=wrap;html=1;aspect=fixed;fillColor=#181616;" parent="1" vertex="1">
          <mxGeometry x="410" y="466.5" width="23" height="23" as="geometry" />
        </mxCell>
        <mxCell id="5ZAwL2VBmsHN6tSApnj3-49" value="id" style="text;strokeColor=none;align=center;fillColor=none;html=1;verticalAlign=middle;whiteSpace=wrap;rounded=0;" parent="1" vertex="1">
          <mxGeometry x="418.5" y="463" width="45" height="30" as="geometry" />
        </mxCell>
        <mxCell id="5ZAwL2VBmsHN6tSApnj3-50" value="quantidade" style="text;strokeColor=none;align=center;fillColor=none;html=1;verticalAlign=middle;whiteSpace=wrap;rounded=0;" parent="1" vertex="1">
          <mxGeometry x="437.5" y="490.5" width="45" height="30" as="geometry" />
        </mxCell>
        <mxCell id="5ZAwL2VBmsHN6tSApnj3-51" value="descricao" style="text;strokeColor=none;align=center;fillColor=none;html=1;verticalAlign=middle;whiteSpace=wrap;rounded=0;" parent="1" vertex="1">
          <mxGeometry x="435" y="515" width="45" height="30" as="geometry" />
        </mxCell>
        <mxCell id="5ZAwL2VBmsHN6tSApnj3-52" value="desconto" style="text;strokeColor=none;align=center;fillColor=none;html=1;verticalAlign=middle;whiteSpace=wrap;rounded=0;" parent="1" vertex="1">
          <mxGeometry x="433" y="538" width="45" height="30" as="geometry" />
        </mxCell>
        <mxCell id="5ZAwL2VBmsHN6tSApnj3-53" value="valor" style="text;strokeColor=none;align=center;fillColor=none;html=1;verticalAlign=middle;whiteSpace=wrap;rounded=0;" parent="1" vertex="1">
          <mxGeometry x="425" y="567" width="45" height="30" as="geometry" />
        </mxCell>
        <mxCell id="5ZAwL2VBmsHN6tSApnj3-55" value="endereco_entrega" style="text;strokeColor=none;align=center;fillColor=none;html=1;verticalAlign=middle;whiteSpace=wrap;rounded=0;" parent="1" vertex="1">
          <mxGeometry x="458" y="593.5" width="45" height="30" as="geometry" />
        </mxCell>
        <mxCell id="5ZAwL2VBmsHN6tSApnj3-56" value="observacao" style="text;strokeColor=none;align=center;fillColor=none;html=1;verticalAlign=middle;whiteSpace=wrap;rounded=0;" parent="1" vertex="1">
          <mxGeometry x="437.5" y="618.5" width="45" height="30" as="geometry" />
        </mxCell>
        <mxCell id="5ZAwL2VBmsHN6tSApnj3-57" value="data" style="text;strokeColor=none;align=center;fillColor=none;html=1;verticalAlign=middle;whiteSpace=wrap;rounded=0;" parent="1" vertex="1">
          <mxGeometry x="421.5" y="645.5" width="45" height="30" as="geometry" />
        </mxCell>
        <mxCell id="5ZAwL2VBmsHN6tSApnj3-58" value="data_entrega" style="text;strokeColor=none;align=center;fillColor=none;html=1;verticalAlign=middle;whiteSpace=wrap;rounded=0;" parent="1" vertex="1">
          <mxGeometry x="444" y="668.5" width="45" height="30" as="geometry" />
        </mxCell>
        <mxCell id="5ZAwL2VBmsHN6tSApnj3-59" value="status" style="text;strokeColor=none;align=center;fillColor=none;html=1;verticalAlign=middle;whiteSpace=wrap;rounded=0;" parent="1" vertex="1">
          <mxGeometry x="431" y="696.5" width="45" height="30" as="geometry" />
        </mxCell>
        <mxCell id="5ZAwL2VBmsHN6tSApnj3-60" value="id_usuario(FK)" style="text;strokeColor=none;align=center;fillColor=none;html=1;verticalAlign=middle;whiteSpace=wrap;rounded=0;" parent="1" vertex="1">
          <mxGeometry x="452.5" y="726.5" width="45" height="30" as="geometry" />
        </mxCell>
        <mxCell id="5ZAwL2VBmsHN6tSApnj3-61" value="id_cliente(FK)" style="text;strokeColor=none;align=center;fillColor=none;html=1;verticalAlign=middle;whiteSpace=wrap;rounded=0;" parent="1" vertex="1">
          <mxGeometry x="450" y="753.5" width="45" height="30" as="geometry" />
        </mxCell>
        <mxCell id="5ZAwL2VBmsHN6tSApnj3-62" value="id_orcamento(FK)" style="text;strokeColor=none;align=center;fillColor=none;html=1;verticalAlign=middle;whiteSpace=wrap;rounded=0;" parent="1" vertex="1">
          <mxGeometry x="466.5" y="783" width="45" height="30" as="geometry" />
        </mxCell>
        <mxCell id="5ZAwL2VBmsHN6tSApnj3-63" value="" style="ellipse;whiteSpace=wrap;html=1;aspect=fixed;" parent="1" vertex="1">
          <mxGeometry x="404" y="490.5" width="23" height="23" as="geometry" />
        </mxCell>
        <mxCell id="5ZAwL2VBmsHN6tSApnj3-64" value="" style="ellipse;whiteSpace=wrap;html=1;aspect=fixed;" parent="1" vertex="1">
          <mxGeometry x="404" y="515.5" width="23" height="23" as="geometry" />
        </mxCell>
        <mxCell id="5ZAwL2VBmsHN6tSApnj3-65" value="" style="ellipse;whiteSpace=wrap;html=1;aspect=fixed;" parent="1" vertex="1">
          <mxGeometry x="404" y="542.5" width="23" height="23" as="geometry" />
        </mxCell>
        <mxCell id="5ZAwL2VBmsHN6tSApnj3-66" value="" style="ellipse;whiteSpace=wrap;html=1;aspect=fixed;" parent="1" vertex="1">
          <mxGeometry x="405" y="569.5" width="23" height="23" as="geometry" />
        </mxCell>
        <mxCell id="5ZAwL2VBmsHN6tSApnj3-67" value="" style="ellipse;whiteSpace=wrap;html=1;aspect=fixed;" parent="1" vertex="1">
          <mxGeometry x="405" y="595.5" width="23" height="23" as="geometry" />
        </mxCell>
        <mxCell id="5ZAwL2VBmsHN6tSApnj3-68" value="" style="ellipse;whiteSpace=wrap;html=1;aspect=fixed;" parent="1" vertex="1">
          <mxGeometry x="406" y="622.5" width="23" height="23" as="geometry" />
        </mxCell>
        <mxCell id="5ZAwL2VBmsHN6tSApnj3-69" value="" style="ellipse;whiteSpace=wrap;html=1;aspect=fixed;" parent="1" vertex="1">
          <mxGeometry x="406" y="649.5" width="23" height="23" as="geometry" />
        </mxCell>
        <mxCell id="5ZAwL2VBmsHN6tSApnj3-70" value="" style="ellipse;whiteSpace=wrap;html=1;aspect=fixed;" parent="1" vertex="1">
          <mxGeometry x="407" y="674.5" width="23" height="23" as="geometry" />
        </mxCell>
        <mxCell id="5ZAwL2VBmsHN6tSApnj3-71" value="" style="ellipse;whiteSpace=wrap;html=1;aspect=fixed;" parent="1" vertex="1">
          <mxGeometry x="408" y="701.5" width="23" height="23" as="geometry" />
        </mxCell>
        <mxCell id="5ZAwL2VBmsHN6tSApnj3-72" value="" style="ellipse;whiteSpace=wrap;html=1;aspect=fixed;fillColor=#e3c800;fontColor=#000000;strokeColor=#B09500;" parent="1" vertex="1">
          <mxGeometry x="408" y="730" width="23" height="23" as="geometry" />
        </mxCell>
        <mxCell id="5ZAwL2VBmsHN6tSApnj3-73" value="" style="ellipse;whiteSpace=wrap;html=1;aspect=fixed;fillColor=#e3c800;fontColor=#000000;strokeColor=#B09500;" parent="1" vertex="1">
          <mxGeometry x="409" y="757" width="23" height="23" as="geometry" />
        </mxCell>
        <mxCell id="5ZAwL2VBmsHN6tSApnj3-74" value="" style="ellipse;whiteSpace=wrap;html=1;aspect=fixed;fillColor=#e3c800;fontColor=#000000;strokeColor=#B09500;" parent="1" vertex="1">
          <mxGeometry x="413" y="788.5" width="23" height="23" as="geometry" />
        </mxCell>
        <mxCell id="5ZAwL2VBmsHN6tSApnj3-83" value="" style="ellipse;whiteSpace=wrap;html=1;aspect=fixed;fillColor=#181616;" parent="1" vertex="1">
          <mxGeometry x="37" y="443.5" width="23" height="23" as="geometry" />
        </mxCell>
        <mxCell id="5ZAwL2VBmsHN6tSApnj3-84" value="id" style="text;whiteSpace=wrap;html=1;" parent="1" vertex="1">
          <mxGeometry x="20" y="440" width="15" height="30" as="geometry" />
        </mxCell>
        <mxCell id="5ZAwL2VBmsHN6tSApnj3-85" value="" style="ellipse;whiteSpace=wrap;html=1;aspect=fixed;" parent="1" vertex="1">
          <mxGeometry x="82" y="464" width="23" height="23" as="geometry" />
        </mxCell>
        <mxCell id="5ZAwL2VBmsHN6tSApnj3-86" value="" style="ellipse;whiteSpace=wrap;html=1;aspect=fixed;" parent="1" vertex="1">
          <mxGeometry x="82" y="492.5" width="23" height="23" as="geometry" />
        </mxCell>
        <mxCell id="5ZAwL2VBmsHN6tSApnj3-87" value="" style="ellipse;whiteSpace=wrap;html=1;aspect=fixed;" parent="1" vertex="1">
          <mxGeometry x="82" y="518.5" width="23" height="23" as="geometry" />
        </mxCell>
        <mxCell id="5ZAwL2VBmsHN6tSApnj3-88" value="" style="ellipse;whiteSpace=wrap;html=1;aspect=fixed;" parent="1" vertex="1">
          <mxGeometry x="82" y="546.5" width="23" height="23" as="geometry" />
        </mxCell>
        <mxCell id="5ZAwL2VBmsHN6tSApnj3-89" value="" style="ellipse;whiteSpace=wrap;html=1;aspect=fixed;" parent="1" vertex="1">
          <mxGeometry x="82" y="575" width="23" height="23" as="geometry" />
        </mxCell>
        <mxCell id="5ZAwL2VBmsHN6tSApnj3-90" value="" style="ellipse;whiteSpace=wrap;html=1;aspect=fixed;" parent="1" vertex="1">
          <mxGeometry x="82" y="603.5" width="23" height="23" as="geometry" />
        </mxCell>
        <mxCell id="5ZAwL2VBmsHN6tSApnj3-91" value="" style="ellipse;whiteSpace=wrap;html=1;aspect=fixed;" parent="1" vertex="1">
          <mxGeometry x="82" y="635" width="23" height="23" as="geometry" />
        </mxCell>
        <mxCell id="5ZAwL2VBmsHN6tSApnj3-92" value="" style="ellipse;whiteSpace=wrap;html=1;aspect=fixed;" parent="1" vertex="1">
          <mxGeometry x="82" y="661.5" width="23" height="23" as="geometry" />
        </mxCell>
        <mxCell id="5ZAwL2VBmsHN6tSApnj3-93" value="" style="ellipse;whiteSpace=wrap;html=1;aspect=fixed;fillColor=#e3c800;fontColor=#000000;strokeColor=#B09500;" parent="1" vertex="1">
          <mxGeometry x="82" y="691.5" width="23" height="23" as="geometry" />
        </mxCell>
        <mxCell id="5ZAwL2VBmsHN6tSApnj3-94" value="" style="ellipse;whiteSpace=wrap;html=1;aspect=fixed;fillColor=#e3c800;fontColor=#000000;strokeColor=#B09500;" parent="1" vertex="1">
          <mxGeometry x="82" y="724.5" width="23" height="23" as="geometry" />
        </mxCell>
        <mxCell id="5ZAwL2VBmsHN6tSApnj3-95" value="" style="ellipse;whiteSpace=wrap;html=1;aspect=fixed;fillColor=#e3c800;fontColor=#000000;strokeColor=#B09500;" parent="1" vertex="1">
          <mxGeometry x="43" y="753.5" width="23" height="23" as="geometry" />
        </mxCell>
        <mxCell id="5ZAwL2VBmsHN6tSApnj3-96" value="quantidade" style="text;strokeColor=none;align=center;fillColor=none;html=1;verticalAlign=middle;whiteSpace=wrap;rounded=0;" parent="1" vertex="1">
          <mxGeometry x="26" y="459.5" width="45" height="30" as="geometry" />
        </mxCell>
        <mxCell id="5ZAwL2VBmsHN6tSApnj3-97" value="descricao" style="text;strokeColor=none;align=center;fillColor=none;html=1;verticalAlign=middle;whiteSpace=wrap;rounded=0;" parent="1" vertex="1">
          <mxGeometry x="29" y="490" width="45" height="30" as="geometry" />
        </mxCell>
        <mxCell id="5ZAwL2VBmsHN6tSApnj3-98" value="desconto" style="text;strokeColor=none;align=center;fillColor=none;html=1;verticalAlign=middle;whiteSpace=wrap;rounded=0;" parent="1" vertex="1">
          <mxGeometry x="29" y="513.5" width="45" height="30" as="geometry" />
        </mxCell>
        <mxCell id="5ZAwL2VBmsHN6tSApnj3-99" value="valor" style="text;strokeColor=none;align=center;fillColor=none;html=1;verticalAlign=middle;whiteSpace=wrap;rounded=0;" parent="1" vertex="1">
          <mxGeometry x="37.5" y="540" width="45" height="30" as="geometry" />
        </mxCell>
        <mxCell id="5ZAwL2VBmsHN6tSApnj3-101" value="endereco_entrega" style="text;strokeColor=none;align=center;fillColor=none;html=1;verticalAlign=middle;whiteSpace=wrap;rounded=0;" parent="1" vertex="1">
          <mxGeometry x="5" y="571.5" width="45" height="30" as="geometry" />
        </mxCell>
        <mxCell id="5ZAwL2VBmsHN6tSApnj3-102" value="observacao" style="text;strokeColor=none;align=center;fillColor=none;html=1;verticalAlign=middle;whiteSpace=wrap;rounded=0;" parent="1" vertex="1">
          <mxGeometry x="24" y="601.5" width="45" height="30" as="geometry" />
        </mxCell>
        <mxCell id="5ZAwL2VBmsHN6tSApnj3-103" value="data" style="text;strokeColor=none;align=center;fillColor=none;html=1;verticalAlign=middle;whiteSpace=wrap;rounded=0;" parent="1" vertex="1">
          <mxGeometry x="37.5" y="630" width="45" height="30" as="geometry" />
        </mxCell>
        <mxCell id="5ZAwL2VBmsHN6tSApnj3-104" value="status" style="text;strokeColor=none;align=center;fillColor=none;html=1;verticalAlign=middle;whiteSpace=wrap;rounded=0;" parent="1" vertex="1">
          <mxGeometry x="35" y="658.5" width="45" height="30" as="geometry" />
        </mxCell>
        <mxCell id="5ZAwL2VBmsHN6tSApnj3-105" value="id_usuario(FK)" style="text;strokeColor=none;align=center;fillColor=none;html=1;verticalAlign=middle;whiteSpace=wrap;rounded=0;" parent="1" vertex="1">
          <mxGeometry x="15" y="686.5" width="45" height="30" as="geometry" />
        </mxCell>
        <mxCell id="5ZAwL2VBmsHN6tSApnj3-106" value="id_cliente(FK)" style="text;strokeColor=none;align=center;fillColor=none;html=1;verticalAlign=middle;whiteSpace=wrap;rounded=0;" parent="1" vertex="1">
          <mxGeometry x="15" y="720" width="45" height="30" as="geometry" />
        </mxCell>
        <mxCell id="5ZAwL2VBmsHN6tSApnj3-107" value="id_produto(FK)" style="text;strokeColor=none;align=center;fillColor=none;html=1;verticalAlign=middle;whiteSpace=wrap;rounded=0;" parent="1" vertex="1">
          <mxGeometry x="-23" y="753" width="45" height="30" as="geometry" />
        </mxCell>
        <mxCell id="W38M7Xm4cQY_RO4WyyAR-2" value="id" style="text;strokeColor=none;align=center;fillColor=none;html=1;verticalAlign=middle;whiteSpace=wrap;rounded=0;" vertex="1" parent="1">
          <mxGeometry x="297" y="79" width="45" height="30" as="geometry" />
        </mxCell>
        <mxCell id="W38M7Xm4cQY_RO4WyyAR-3" value="" style="ellipse;whiteSpace=wrap;html=1;aspect=fixed;" vertex="1" parent="1">
          <mxGeometry x="335" y="82.5" width="23" height="23" as="geometry" />
        </mxCell>
      </root>
    </mxGraphModel>
  </diagram>
</mxfile>
